<?xml version="1.0" encoding="UTF-8"?>
<svg id="Layer_1" xmlns="http://www.w3.org/2000/svg" viewBox="0 0 58 58">
  <defs>
    <style>
      .cls-1 {
        fill: #fff;
      }

      .cls-2 {
        fill: none;
      }
    </style>
  </defs>
  <rect class="cls-2" width="58" height="58"/>
  <g id="heart_icon">
    <path class="cls-1" d="M40.77,31.75l-10.58,12.33-10.58-12.33-2.48-2.89c-2.89-3.37-2.52-8.44.86-11.33,1.52-1.3,3.37-1.93,5.23-1.93,2.27,0,4.51.95,6.1,2.8l.87,1.02,10.58,12.33Z"/>
    <path class="cls-1" d="M43.25,28.86l-2.48,2.89-10.58,12.33-10.58-12.33,10.58-12.33.87-1.02c1.59-1.86,3.84-2.8,6.1-2.8,1.86,0,3.71.62,5.23,1.93,3.37,2.89,3.75,7.96.86,11.33Z"/>
  </g>
</svg>