<svg width="38" height="38" viewBox="0 0 38 38" fill="none" xmlns="http://www.w3.org/2000/svg">
<path d="M20.25 11.25H17.75V8.75H20.25M20.25 21.25H17.75V13.75H20.25M19 2.5C17.3585 2.5 15.733 2.82332 14.2165 3.45151C12.6999 4.07969 11.3219 5.00043 10.1612 6.16117C7.81696 8.50537 6.5 11.6848 6.5 15C6.5 18.3152 7.81696 21.4946 10.1612 23.8388C11.3219 24.9996 12.6999 25.9203 14.2165 26.5485C15.733 27.1767 17.3585 27.5 19 27.5C22.3152 27.5 25.4946 26.183 27.8388 23.8388C30.183 21.4946 31.5 18.3152 31.5 15C31.5 13.3585 31.1767 11.733 30.5485 10.2165C29.9203 8.69989 28.9996 7.3219 27.8388 6.16117C26.6781 5.00043 25.3001 4.07969 23.7835 3.45151C22.267 2.82332 20.6415 2.5 19 2.5Z" fill="#F8F8FA"/>
</svg>
